<svg xmlns="http://www.w3.org/2000/svg" viewBox="0 0 17080 280" width="17080" height="280"><path d="M242.748 2.888C241.085 1.05 238.74 0 236.255 0h-192.5c-2.467 0-4.83 1.05-6.492 2.888-1.645 1.819-2.468 4.269-2.222 6.737l26.25 262.5c.454 4.48 4.217 7.875 8.714 7.875h140c4.498 0 8.26-3.395 8.698-7.875l26.25-262.5c.262-2.468-.543-4.918-2.205-6.737z" fill="#eceff1"/><path d="M202.13 254v8.5H77.88L71 254c21.875-7 42 14 70 0 23-16 39.43 6.65 61.13 0z" fill="#2196f3"/><path d="M522.748 2.888C521.085 1.05 518.74 0 516.255 0h-192.5c-2.467 0-4.83 1.05-6.492 2.888-1.645 1.819-2.468 4.269-2.222 6.737l26.25 262.5c.454 4.48 4.217 7.875 8.714 7.875h140c4.498 0 8.26-3.395 8.698-7.875l26.25-262.5c.262-2.468-.543-4.918-2.205-6.737z" fill="#eceff1"/><path d="M482.14 253.901l-.01 8.599H357.88l-6.888-8.611c21.875-7 42.008 13.985 70.007.006 23.002-15.978 39.441 6.656 61.141.006z" fill="#2196f3"/><path d="M802.748 2.888C801.085 1.05 798.74 0 796.255 0h-192.5c-2.467 0-4.83 1.05-6.492 2.888-1.645 1.819-2.468 4.269-2.222 6.737l26.25 262.5c.454 4.48 4.217 7.875 8.714 7.875h140c4.498 0 8.26-3.395 8.698-7.875l26.25-262.5c.262-2.468-.543-4.918-2.205-6.737z" fill="#eceff1"/><path d="M762.173 253.592l-.043 8.908H637.88l-6.911-8.959c21.875-7 42.032 13.937 70.029.025 23.006-15.908 39.475 6.676 61.175.026z" fill="#2196f3"/><path d="M1082.748 2.888C1081.085 1.05 1078.74 0 1076.255 0h-192.5c-2.467 0-4.83 1.05-6.492 2.888-1.645 1.819-2.468 4.269-2.222 6.737l26.25 262.5c.454 4.48 4.217 7.875 8.714 7.875h140c4.498 0 8.26-3.395 8.698-7.875l26.25-262.5c.262-2.468-.543-4.918-2.205-6.737z" fill="#eceff1"/><path d="M1042.23 253.049l-.1 9.451H917.88l-6.952-9.569c21.875-7 42.075 13.852 70.066.058 23.015-15.787 39.536 6.71 61.236.06z" fill="#2196f3"/><path d="M1362.748 2.888C1361.085 1.05 1358.74 0 1356.255 0h-192.5c-2.467 0-4.83 1.05-6.492 2.888-1.645 1.819-2.468 4.269-2.222 6.737l26.25 262.5c.454 4.48 4.217 7.875 8.714 7.875h140c4.498 0 8.26-3.395 8.698-7.875l26.25-262.5c.262-2.468-.543-4.918-2.205-6.737z" fill="#eceff1"/><path d="M1322.314 252.247l-.184 10.253h-124.25l-7.013-10.471c21.875-7 42.139 13.726 70.122.106 23.028-15.606 39.625 6.762 61.325.112z" fill="#2196f3"/><path d="M1642.748 2.888C1641.085 1.05 1638.74 0 1636.255 0h-192.5c-2.467 0-4.83 1.05-6.492 2.888-1.645 1.819-2.468 4.269-2.222 6.737l26.25 262.5c.454 4.48 4.217 7.875 8.714 7.875h140c4.498 0 8.26-3.395 8.698-7.875l26.25-262.5c.262-2.468-.543-4.918-2.205-6.737z" fill="#eceff1"/><path d="M1602.429 251.155l-.299 11.345h-124.25l-7.097-11.699c21.875-7 42.227 13.556 70.2.173 23.044-15.361 39.746 6.831 61.446.181z" fill="#2196f3"/><path d="M1922.748 2.888C1921.085 1.05 1918.74 0 1916.255 0h-192.5c-2.467 0-4.83 1.05-6.492 2.888-1.645 1.819-2.468 4.269-2.222 6.737l26.25 262.5c.454 4.48 4.217 7.875 8.714 7.875h140c4.498 0 8.26-3.395 8.698-7.875l26.25-262.5c.262-2.468-.543-4.918-2.205-6.737z" fill="#eceff1"/><path d="M1882.578 249.739l-.448 12.761h-124.25l-7.204-13.29c21.875-7 42.339 13.334 70.298.258 23.066-15.044 39.904 6.921 61.604.271z" fill="#2196f3"/><path d="M2202.748 2.888C2201.085 1.05 2198.74 0 2196.255 0h-192.5c-2.467 0-4.83 1.05-6.492 2.888-1.645 1.819-2.468 4.269-2.222 6.737l26.25 262.5c.454 4.48 4.217 7.875 8.714 7.875h140c4.498 0 8.26-3.395 8.698-7.875l26.25-262.5c.262-2.468-.543-4.918-2.205-6.737z" fill="#eceff1"/><path d="M2162.765 247.96l-.635 14.54h-124.25l-7.34-15.29c21.875-7 42.481 13.056 70.424.365 23.093-14.643 40.101 7.035 61.801.385z" fill="#2196f3"/><path d="M2482.748 2.888C2481.085 1.05 2478.74 0 2476.255 0h-192.5c-2.467 0-4.83 1.05-6.492 2.888-1.645 1.819-2.468 4.269-2.222 6.737l26.25 262.5c.454 4.48 4.217 7.875 8.714 7.875h140c4.498 0 8.26-3.395 8.698-7.875l26.25-262.5c.262-2.468-.543-4.918-2.205-6.737z" fill="#eceff1"/><path d="M2442.995 245.774l-.865 16.726h-124.25l-7.506-17.748c21.875-7 42.655 12.715 70.576.498 23.128-14.153 40.345 7.174 62.045.524z" fill="#2196f3"/><path d="M2762.748 2.888C2761.085 1.05 2758.74 0 2756.255 0h-192.5c-2.467 0-4.83 1.05-6.492 2.888-1.645 1.819-2.468 4.269-2.222 6.737l26.25 262.5c.454 4.48 4.217 7.875 8.714 7.875h140c4.498 0 8.26-3.395 8.698-7.875l26.25-262.5c.262-2.468-.543-4.918-2.205-6.737z" fill="#eceff1"/><path d="M2723.273 243.131l-1.143 19.369h-124.25l-7.708-20.72c21.875-7 42.866 12.303 70.762.658 23.169-13.559 40.639 7.343 62.339.693z" fill="#2196f3"/><path d="M3042.748 2.888C3041.085 1.05 3038.74 0 3036.255 0h-192.5c-2.467 0-4.83 1.05-6.492 2.888-1.645 1.819-2.468 4.269-2.222 6.737l26.25 262.5c.454 4.48 4.217 7.875 8.714 7.875h140c4.498 0 8.26-3.395 8.698-7.875l26.25-262.5c.262-2.468-.543-4.918-2.205-6.737z" fill="#eceff1"/><path d="M3003.604 239.979l-1.474 22.521h-124.25l-7.948-24.264c21.875-7 43.117 11.811 70.983.849 23.217-12.851 40.989 7.544 62.689.894z" fill="#2196f3"/><path d="M3322.748 2.888C3321.085 1.05 3318.74 0 3316.255 0h-192.5c-2.467 0-4.83 1.05-6.492 2.888-1.645 1.819-2.468 4.269-2.222 6.737l26.25 262.5c.454 4.48 4.217 7.875 8.714 7.875h140c4.498 0 8.26-3.395 8.698-7.875l26.25-262.5c.262-2.468-.543-4.918-2.205-6.737z" fill="#eceff1"/><path d="M3283.995 236.263l-1.865 26.237h-124.25l-8.231-28.442c21.875-7 43.413 11.231 71.244 1.074 23.274-12.016 41.402 7.781 63.102 1.131z" fill="#2196f3"/><path d="M3602.748 2.888C3601.085 1.05 3598.74 0 3596.255 0h-192.5c-2.467 0-4.83 1.05-6.492 2.888-1.645 1.819-2.468 4.269-2.222 6.737l26.25 262.5c.454 4.48 4.217 7.875 8.714 7.875h140c4.498 0 8.26-3.395 8.698-7.875l26.25-262.5c.262-2.468-.543-4.918-2.205-6.737z" fill="#eceff1"/><path d="M3564.451 231.932l-2.321 30.568h-124.25l-8.56-33.31c21.875-7 43.758 10.554 71.547 1.336 23.341-11.044 41.884 8.056 63.584 1.406z" fill="#2196f3"/><path d="M3882.748 2.888C3881.085 1.05 3878.74 0 3876.255 0h-192.5c-2.467 0-4.83 1.05-6.492 2.888-1.645 1.819-2.468 4.269-2.222 6.737l26.25 262.5c.454 4.48 4.217 7.875 8.714 7.875h140c4.498 0 8.26-3.395 8.698-7.875l26.25-262.5c.262-2.468-.543-4.918-2.205-6.737z" fill="#eceff1"/><path d="M3844.975 226.95l-2.845 35.55h-124.25l-8.94-38.912c21.875-7 44.155 9.776 71.897 1.638 23.418-9.925 42.438 8.374 64.138 1.724z" fill="#2196f3"/><path d="M4162.748 2.888C4161.085 1.05 4158.74 0 4156.255 0h-192.5c-2.467 0-4.83 1.05-6.492 2.888-1.645 1.819-2.468 4.269-2.222 6.737l26.25 262.5c.454 4.48 4.217 7.875 8.714 7.875h140c4.498 0 8.26-3.395 8.698-7.875l26.25-262.5c.262-2.468-.543-4.918-2.205-6.737z" fill="#eceff1"/><path d="M4125.568 221.303l-3.438 41.197h-124.25l-9.37-45.26c21.875-7 44.605 8.894 72.293 1.98 23.506-8.657 43.065 8.733 64.765 2.083z" fill="#2196f3"/><path d="M4442.748 2.888C4441.085 1.05 4438.74 0 4436.255 0h-192.5c-2.467 0-4.83 1.05-6.492 2.888-1.645 1.819-2.468 4.269-2.222 6.737l26.25 262.5c.454 4.48 4.217 7.875 8.714 7.875h140c4.498 0 8.26-3.395 8.698-7.875l26.25-262.5c.262-2.468-.543-4.918-2.205-6.737z" fill="#eceff1"/><path d="M4406.229 215.022l-4.099 47.478h-124.25l-9.848-52.322c21.875-7 45.105 7.914 72.733 2.36 23.603-7.246 43.764 9.134 65.464 2.484z" fill="#2196f3"/><path d="M4722.748 2.888C4721.085 1.05 4718.74 0 4716.255 0h-192.5c-2.467 0-4.83 1.05-6.492 2.888-1.645 1.819-2.468 4.269-2.222 6.737l26.25 262.5c.454 4.48 4.217 7.875 8.714 7.875h140c4.498 0 8.26-3.395 8.698-7.875l26.25-262.5c.262-2.468-.543-4.918-2.205-6.737z" fill="#eceff1"/><path d="M4686.947 208.191l-4.817 54.309h-124.25l-10.368-60.002c21.875-7 45.649 6.847 73.211 2.773 23.709-5.712 44.524 9.57 66.224 2.92z" fill="#2196f3"/><path d="M5002.748 2.888C5001.085 1.05 4998.74 0 4996.255 0h-192.5c-2.467 0-4.83 1.05-6.492 2.888-1.645 1.819-2.468 4.269-2.222 6.737l26.25 262.5c.454 4.48 4.217 7.875 8.714 7.875h140c4.498 0 8.26-3.395 8.698-7.875l26.25-262.5c.262-2.468-.543-4.918-2.205-6.737z" fill="#eceff1"/><path d="M4967.709 200.951l-5.579 61.549h-124.25l-10.919-68.142c21.875-7 46.226 5.717 73.719 3.212 23.821-4.086 45.329 10.031 67.029 3.381z" fill="#2196f3"/><path d="M5282.748 2.888C5281.085 1.05 5278.74 0 5276.255 0h-192.5c-2.467 0-4.83 1.05-6.492 2.888-1.645 1.819-2.468 4.269-2.222 6.737l26.25 262.5c.454 4.48 4.217 7.875 8.714 7.875h140c4.498 0 8.26-3.395 8.698-7.875l26.25-262.5c.262-2.468-.543-4.918-2.205-6.737z" fill="#eceff1"/><path d="M5248.493 193.488l-6.363 69.012h-124.25l-11.487-76.532c21.875-7 46.82 4.551 74.242 3.663 23.936-2.41 46.158 10.507 67.858 3.857z" fill="#2196f3"/><path d="M5562.748 2.888C5561.085 1.05 5558.74 0 5556.255 0h-192.5c-2.467 0-4.83 1.05-6.492 2.888-1.645 1.819-2.468 4.269-2.222 6.737l26.25 262.5c.454 4.48 4.217 7.875 8.714 7.875h140c4.498 0 8.26-3.395 8.698-7.875l26.25-262.5c.262-2.468-.543-4.918-2.205-6.737z" fill="#eceff1"/><path d="M5529.281 186.001l-7.151 76.499h-124.25l-12.057-84.95c21.875-7 47.416 3.382 74.766 4.117 24.053-.729 46.992 10.984 68.692 4.334z" fill="#2196f3"/><path d="M5842.748 2.888C5841.085 1.05 5838.74 0 5836.255 0h-192.5c-2.467 0-4.83 1.05-6.492 2.888-1.645 1.819-2.468 4.269-2.222 6.737l26.25 262.5c.454 4.48 4.217 7.875 8.714 7.875h140c4.498 0 8.26-3.395 8.698-7.875l26.25-262.5c.262-2.468-.543-4.918-2.205-6.737z" fill="#eceff1"/><path d="M5810.052 178.668l-7.922 83.832h-124.25l-12.616-93.194c21.875-7 48.001 2.237 75.281 4.561 24.166.918 47.807 11.451 69.507 4.801z" fill="#2196f3"/><path d="M6122.748 2.888C6121.085 1.05 6118.74 0 6116.255 0h-192.5c-2.467 0-4.83 1.05-6.492 2.888-1.645 1.819-2.468 4.269-2.222 6.737l26.25 262.5c.454 4.48 4.217 7.875 8.714 7.875h140c4.498 0 8.26-3.395 8.698-7.875l26.25-262.5c.262-2.468-.543-4.918-2.205-6.737z" fill="#eceff1"/><path d="M6090.792 171.625l-8.662 90.875h-124.25l-13.152-101.113c21.875-7 48.562 1.138 75.774 4.988 24.276 2.5 48.591 11.9 70.29 5.25z" fill="#2196f3"/><path d="M6402.748 2.888C6401.085 1.05 6398.74 0 6396.255 0h-192.5c-2.467 0-4.83 1.05-6.492 2.888-1.645 1.819-2.468 4.269-2.222 6.737l26.25 262.5c.454 4.48 4.217 7.875 8.714 7.875h140c4.498 0 8.26-3.395 8.698-7.875l26.25-262.5c.262-2.468-.543-4.918-2.205-6.737z" fill="#eceff1"/><path d="M6371.493 164.96l-9.363 97.54h-124.25l-13.659-108.606c21.875-7 49.092.097 76.241 5.391 24.378 3.997 49.331 12.325 71.031 5.675z" fill="#2196f3"/><path d="M6682.748 2.888C6681.085 1.05 6678.74 0 6676.255 0h-192.5c-2.467 0-4.83 1.05-6.492 2.888-1.645 1.819-2.468 4.269-2.222 6.737l26.25 262.5c.454 4.48 4.217 7.875 8.714 7.875h140c4.498 0 8.26-3.395 8.698-7.875l26.25-262.5c.262-2.468-.543-4.918-2.205-6.737z" fill="#eceff1"/><path d="M6652.15 158.717L6642.13 262.5h-124.25l-14.135-115.624c21.875-7 49.59-.878 76.68 5.769 24.474 5.399 50.025 12.722 71.725 6.072z" fill="#2196f3"/><path d="M6962.748 2.888C6961.085 1.05 6958.74 0 6956.255 0h-192.5c-2.467 0-4.83 1.05-6.492 2.888-1.645 1.819-2.468 4.269-2.222 6.737l26.25 262.5c.454 4.48 4.217 7.875 8.714 7.875h140c4.498 0 8.26-3.395 8.698-7.875l26.25-262.5c.262-2.468-.543-4.918-2.205-6.737z" fill="#eceff1"/><path d="M6932.761 152.91L6922.13 262.5h-124.25l-14.577-122.153c21.875-7 50.053-1.785 77.086 6.121 24.565 6.703 50.672 13.092 72.372 6.442z" fill="#2196f3"/><path d="M7242.748 2.888C7241.085 1.05 7238.74 0 7236.255 0h-192.5c-2.467 0-4.83 1.05-6.492 2.888-1.645 1.819-2.468 4.269-2.222 6.737l26.25 262.5c.454 4.48 4.217 7.875 8.714 7.875h140c4.498 0 8.26-3.395 8.698-7.875l26.25-262.5c.262-2.468-.543-4.918-2.205-6.737z" fill="#eceff1"/><path d="M7213.326 147.531L7202.13 262.5h-124.25l-14.987-128.201c21.875-7 50.482-2.625 77.464 6.446 24.648 7.911 51.269 13.436 72.969 6.786z" fill="#2196f3"/><path d="M7522.748 2.888C7521.085 1.05 7518.74 0 7516.255 0h-192.5c-2.467 0-4.83 1.05-6.492 2.888-1.645 1.819-2.468 4.269-2.222 6.737l26.25 262.5c.454 4.48 4.217 7.875 8.714 7.875h140c4.498 0 8.26-3.395 8.698-7.875l26.25-262.5c.262-2.468-.543-4.918-2.205-6.737z" fill="#eceff1"/><path d="M7493.849 142.56L7482.13 262.5h-124.25l-15.365-133.79c21.875-7 50.877-3.401 77.812 6.747 24.725 9.028 51.822 13.753 73.522 7.103z" fill="#2196f3"/><path d="M7802.748 2.888C7801.085 1.05 7798.74 0 7796.255 0h-192.5c-2.467 0-4.83 1.05-6.492 2.888-1.645 1.819-2.468 4.269-2.222 6.737l26.25 262.5c.454 4.48 4.217 7.875 8.714 7.875h140c4.498 0 8.26-3.395 8.698-7.875l26.25-262.5c.262-2.468-.543-4.918-2.205-6.737z" fill="#eceff1"/><path d="M7774.331 137.971L7762.13 262.5h-124.25l-15.714-138.949c21.875-7 51.242-4.117 78.133 7.026 24.796 10.058 52.332 14.044 74.032 7.394z" fill="#2196f3"/><path d="M8082.748 2.888C8081.085 1.05 8078.74 0 8076.255 0h-192.5c-2.467 0-4.83 1.05-6.492 2.888-1.645 1.819-2.468 4.269-2.222 6.737l26.25 262.5c.454 4.48 4.217 7.875 8.714 7.875h140c4.498 0 8.26-3.395 8.698-7.875l26.25-262.5c.262-2.468-.543-4.918-2.205-6.737z" fill="#eceff1"/><path d="M8054.777 133.738L8042.13 262.5h-124.25l-16.037-143.708c21.875-7 51.58-4.779 78.431 7.281 24.861 11.009 52.803 14.315 74.503 7.665z" fill="#2196f3"/><path d="M8362.748 2.888C8361.085 1.05 8358.74 0 8356.255 0h-192.5c-2.467 0-4.83 1.05-6.492 2.888-1.645 1.819-2.468 4.269-2.222 6.737l26.25 262.5c.454 4.48 4.217 7.875 8.714 7.875h140c4.498 0 8.26-3.395 8.698-7.875l26.25-262.5c.262-2.468-.543-4.918-2.205-6.737z" fill="#eceff1"/><path d="M8335.187 129.832L8322.13 262.5h-124.25l-16.334-148.1c21.875-7 51.891-5.388 78.704 7.518 24.922 11.886 53.237 14.564 74.937 7.914z" fill="#2196f3"/><path d="M8642.748 2.888C8641.085 1.05 8638.74 0 8636.255 0h-192.5c-2.467 0-4.83 1.05-6.492 2.888-1.645 1.819-2.468 4.269-2.222 6.737l26.25 262.5c.454 4.48 4.217 7.875 8.714 7.875h140c4.498 0 8.26-3.395 8.698-7.875l26.25-262.5c.262-2.468-.543-4.918-2.205-6.737z" fill="#eceff1"/><path d="M8615.567 126.226L8602.13 262.5h-124.25l-16.609-152.153c21.875-7 52.179-5.952 78.957 7.736 24.978 12.696 53.639 14.793 75.339 8.143z" fill="#2196f3"/><g><path d="M8922.748 2.888C8921.085 1.05 8918.74 0 8916.255 0h-192.5c-2.467 0-4.83 1.05-6.492 2.888-1.645 1.819-2.468 4.269-2.222 6.737l26.25 262.5c.454 4.48 4.217 7.875 8.714 7.875h140c4.498 0 8.26-3.395 8.698-7.875l26.25-262.5c.262-2.468-.543-4.918-2.205-6.737z" fill="#eceff1"/><path d="M8895.917 122.897L8882.13 262.5h-124.25l-16.862-155.896c21.875-7 52.444-6.471 79.19 7.938 25.029 13.443 54.009 15.005 75.709 8.355z" fill="#2196f3"/></g><g><path d="M9202.748 2.888C9201.085 1.05 9198.74 0 9196.255 0h-192.5c-2.467 0-4.83 1.05-6.492 2.888-1.645 1.819-2.468 4.269-2.222 6.737l26.25 262.5c.454 4.48 4.217 7.875 8.714 7.875h140c4.498 0 8.26-3.395 8.698-7.875l26.25-262.5c.262-2.468-.543-4.918-2.205-6.737z" fill="#eceff1"/><path d="M9176.24 119.822L9162.13 262.5h-124.25l-17.096-159.353c21.875-7 52.688-6.951 79.406 8.124 25.076 14.134 54.35 15.201 76.05 8.551z" fill="#2196f3"/></g><g><path d="M9482.748 2.888C9481.085 1.05 9478.74 0 9476.255 0h-192.5c-2.467 0-4.83 1.05-6.492 2.888-1.645 1.819-2.468 4.269-2.222 6.737l26.25 262.5c.454 4.48 4.217 7.875 8.714 7.875h140c4.498 0 8.26-3.395 8.698-7.875l26.25-262.5c.262-2.468-.543-4.918-2.205-6.737z" fill="#eceff1"/><path d="M9456.539 116.981L9442.13 262.5h-124.25l-17.313-162.548c21.875-7 52.915-7.395 79.605 8.296 25.121 14.772 54.667 15.383 76.367 8.733z" fill="#2196f3"/></g><g><path d="M9762.748 2.888C9761.085 1.05 9758.74 0 9756.255 0h-192.5c-2.467 0-4.83 1.05-6.492 2.888-1.645 1.819-2.468 4.269-2.222 6.737l26.25 262.5c.454 4.48 4.217 7.875 8.714 7.875h140c4.498 0 8.26-3.395 8.698-7.875l26.25-262.5c.262-2.468-.543-4.918-2.205-6.737z" fill="#eceff1"/><path d="M9736.815 114.355L9722.13 262.5h-124.25L9580.367 97c21.875-7 53.125-7.805 79.79 8.455 25.161 15.362 54.958 15.55 76.658 8.9z" fill="#2196f3"/></g><g><path d="M10042.748 2.888c-1.663-1.838-4.008-2.888-6.493-2.888h-192.5c-2.467 0-4.83 1.05-6.492 2.888-1.645 1.819-2.468 4.269-2.222 6.737l26.25 262.5c.454 4.48 4.217 7.875 8.714 7.875h140c4.498 0 8.26-3.395 8.698-7.875l26.25-262.5c.262-2.468-.543-4.918-2.205-6.737z" fill="#eceff1"/><path d="M10017.07 111.928l-14.94 150.572h-124.25l-17.697-168.229c21.875-7 53.317-8.184 79.959 8.602 25.199 15.907 55.228 15.705 76.928 9.055z" fill="#2196f3"/></g><g><path d="M10322.748 2.888c-1.663-1.838-4.008-2.888-6.493-2.888h-192.5c-2.467 0-4.83 1.05-6.492 2.888-1.645 1.819-2.468 4.269-2.222 6.737l26.25 262.5c.454 4.48 4.217 7.875 8.714 7.875h140c4.498 0 8.26-3.395 8.698-7.875l26.25-262.5c.262-2.468-.543-4.918-2.205-6.737z" fill="#eceff1"/><path d="M10297.306 109.684L10282.13 262.5h-124.25l-17.868-170.751c21.875-7 53.496-8.534 80.116 8.738 25.234 16.41 55.478 15.847 77.178 9.197z" fill="#2196f3"/></g><g><path d="M10602.748 2.888c-1.663-1.838-4.008-2.888-6.493-2.888h-192.5c-2.467 0-4.83 1.05-6.492 2.888-1.645 1.819-2.468 4.269-2.222 6.737l26.25 262.5c.454 4.48 4.217 7.875 8.714 7.875h140c4.498 0 8.26-3.395 8.698-7.875l26.25-262.5c.262-2.468-.543-4.918-2.205-6.737z" fill="#eceff1"/><path d="M10577.524 107.612L10562.13 262.5h-124.25l-18.026-173.082c21.875-7 53.661-8.857 80.262 8.864 25.266 16.876 55.708 15.98 77.408 9.33z" fill="#2196f3"/></g><g><path d="M10882.748 2.888c-1.663-1.838-4.008-2.888-6.493-2.888h-192.5c-2.467 0-4.83 1.05-6.492 2.888-1.645 1.819-2.468 4.269-2.222 6.737l26.25 262.5c.454 4.48 4.217 7.875 8.714 7.875h140c4.498 0 8.26-3.395 8.698-7.875l26.25-262.5c.262-2.468-.543-4.918-2.205-6.737z" fill="#eceff1"/><path d="M10857.725 105.697L10842.13 262.5h-124.25l-18.172-175.234c21.875-7 53.814-9.156 80.396 8.98 25.296 17.306 55.921 16.101 77.621 9.451z" fill="#2196f3"/></g><g><path d="M11162.748 2.888c-1.663-1.838-4.008-2.888-6.493-2.888h-192.5c-2.467 0-4.83 1.05-6.492 2.888-1.645 1.819-2.468 4.269-2.222 6.737l26.25 262.5c.454 4.48 4.217 7.875 8.714 7.875h140c4.498 0 8.26-3.395 8.698-7.875l26.25-262.5c.262-2.468-.543-4.918-2.205-6.737z" fill="#eceff1"/><path d="M11137.911 103.931L11122.13 262.5h-124.25l-18.306-177.22c21.875-7 53.954-9.432 80.52 9.086 25.322 17.703 56.117 16.215 77.817 9.565z" fill="#2196f3"/></g><g><path d="M11442.748 2.888c-1.663-1.838-4.008-2.888-6.493-2.888h-192.5c-2.467 0-4.83 1.05-6.492 2.888-1.645 1.819-2.468 4.269-2.222 6.737l26.25 262.5c.454 4.48 4.217 7.875 8.714 7.875h140c4.498 0 8.26-3.395 8.698-7.875l26.25-262.5c.262-2.468-.543-4.918-2.205-6.737z" fill="#eceff1"/><path d="M11418.082 102.302L11402.13 262.5h-124.25l-18.43-179.051c21.875-7 54.084-9.687 80.634 9.185 25.348 18.069 56.298 16.318 77.998 9.668z" fill="#2196f3"/></g><g><path d="M11722.748 2.888c-1.663-1.838-4.008-2.888-6.493-2.888h-192.5c-2.467 0-4.83 1.05-6.492 2.888-1.645 1.819-2.468 4.269-2.222 6.737l26.25 262.5c.454 4.48 4.217 7.875 8.714 7.875h140c4.498 0 8.26-3.395 8.698-7.875l26.25-262.5c.262-2.468-.543-4.918-2.205-6.737z" fill="#eceff1"/><path d="M11698.24 100.803l-16.11 161.697h-124.25l-18.544-180.737c21.875-7 54.203-9.921 80.739 9.276 25.371 18.405 56.465 16.414 78.165 9.764z" fill="#2196f3"/></g><g><path d="M12002.748 2.888c-1.663-1.838-4.008-2.888-6.493-2.888h-192.5c-2.467 0-4.83 1.05-6.492 2.888-1.645 1.819-2.468 4.269-2.222 6.737l26.25 262.5c.454 4.48 4.217 7.875 8.714 7.875h140c4.498 0 8.26-3.395 8.698-7.875l26.25-262.5c.262-2.468-.543-4.918-2.205-6.737z" fill="#eceff1"/><path d="M11978.385 99.424L11962.13 262.5h-124.25l-18.649-182.287c21.875-7 54.313-10.136 80.835 9.359 25.393 18.716 56.619 16.502 78.319 9.852z" fill="#2196f3"/></g><g><path d="M12282.748 2.888c-1.663-1.838-4.008-2.888-6.493-2.888h-192.5c-2.467 0-4.83 1.05-6.492 2.888-1.645 1.819-2.468 4.269-2.222 6.737l26.25 262.5c.454 4.48 4.217 7.875 8.714 7.875h140c4.498 0 8.26-3.395 8.698-7.875l26.25-262.5c.262-2.468-.543-4.918-2.205-6.737z" fill="#eceff1"/><path d="M12258.518 98.159L12242.13 262.5h-124.25l-18.746-183.709c21.875-7 54.415-10.334 80.925 9.436 25.412 18.999 56.759 16.582 78.459 9.932z" fill="#2196f3"/></g><g><path d="M12562.748 2.888c-1.663-1.838-4.008-2.888-6.493-2.888h-192.5c-2.467 0-4.83 1.05-6.492 2.888-1.645 1.819-2.468 4.269-2.222 6.737l26.25 262.5c.454 4.48 4.217 7.875 8.714 7.875h140c4.498 0 8.26-3.395 8.698-7.875l26.25-262.5c.262-2.468-.543-4.918-2.205-6.737z" fill="#eceff1"/><path d="M12538.64 97.001l-16.51 165.499h-124.25l-18.834-185.01c21.875-7 54.507-10.515 81.006 9.505 25.43 19.259 56.888 16.656 78.588 10.006z" fill="#2196f3"/></g><g><path d="M12842.748 2.888c-1.663-1.838-4.008-2.888-6.493-2.888h-192.5c-2.467 0-4.83 1.05-6.492 2.888-1.645 1.819-2.468 4.269-2.222 6.737l26.25 262.5c.454 4.48 4.217 7.875 8.714 7.875h140c4.498 0 8.26-3.395 8.698-7.875l26.25-262.5c.262-2.468-.543-4.918-2.205-6.737z" fill="#eceff1"/><path d="M12818.751 95.944L12802.13 262.5h-124.25l-18.914-186.199c21.875-7 54.59-10.68 81.079 9.57 25.447 19.496 57.006 16.723 78.706 10.073z" fill="#2196f3"/></g><g><path d="M13122.748 2.888c-1.663-1.838-4.008-2.888-6.493-2.888h-192.5c-2.467 0-4.83 1.05-6.492 2.888-1.645 1.819-2.468 4.269-2.222 6.737l26.25 262.5c.454 4.48 4.217 7.875 8.714 7.875h140c4.498 0 8.26-3.395 8.698-7.875l26.25-262.5c.262-2.468-.543-4.918-2.205-6.737z" fill="#eceff1"/><path d="M13098.852 94.982L13082.13 262.5h-124.25l-18.988-187.28c21.875-7 54.668-10.83 81.148 9.628 25.461 19.712 57.112 16.784 78.812 10.134z" fill="#2196f3"/></g><g><path d="M13402.748 2.888c-1.663-1.838-4.008-2.888-6.493-2.888h-192.5c-2.467 0-4.83 1.05-6.492 2.888-1.645 1.819-2.468 4.269-2.222 6.737l26.25 262.5c.454 4.48 4.217 7.875 8.714 7.875h140c4.498 0 8.26-3.395 8.698-7.875l26.25-262.5c.262-2.468-.543-4.918-2.205-6.737z" fill="#eceff1"/><path d="M13378.944 94.111L13362.13 262.5h-124.25l-19.054-188.26c21.875-7 54.737-10.966 81.208 9.681 25.475 19.908 57.21 16.84 78.91 10.19z" fill="#2196f3"/></g><g><path d="M13682.748 2.888c-1.663-1.838-4.008-2.888-6.493-2.888h-192.5c-2.467 0-4.83 1.05-6.492 2.888-1.645 1.819-2.468 4.269-2.222 6.737l26.25 262.5c.454 4.48 4.217 7.875 8.714 7.875h140c4.498 0 8.26-3.395 8.698-7.875l26.25-262.5c.262-2.468-.543-4.918-2.205-6.737z" fill="#eceff1"/><path d="M13659.027 93.325L13642.13 262.5h-124.25l-19.114-189.144c21.875-7 54.8-11.089 81.264 9.728 25.487 20.085 57.297 16.891 78.997 10.241z" fill="#2196f3"/></g><g><path d="M13962.748 2.888c-1.663-1.838-4.008-2.888-6.493-2.888h-192.5c-2.467 0-4.83 1.05-6.492 2.888-1.645 1.819-2.468 4.269-2.222 6.737l26.25 262.5c.454 4.48 4.217 7.875 8.714 7.875h140c4.498 0 8.26-3.395 8.698-7.875l26.25-262.5c.262-2.468-.543-4.918-2.205-6.737z" fill="#eceff1"/><path d="M13939.101 92.62l-16.971 169.88h-124.25l-19.167-189.937c21.875-7 54.855-11.198 81.312 9.771 25.498 20.244 57.376 16.936 79.076 10.286z" fill="#2196f3"/></g><g><path d="M14242.748 2.888c-1.663-1.838-4.008-2.888-6.493-2.888h-192.5c-2.467 0-4.83 1.05-6.492 2.888-1.645 1.819-2.468 4.269-2.222 6.737l26.25 262.5c.454 4.48 4.217 7.875 8.714 7.875h140c4.498 0 8.26-3.395 8.698-7.875l26.25-262.5c.262-2.468-.543-4.918-2.205-6.737z" fill="#eceff1"/><path d="M14219.167 91.992L14202.13 262.5h-124.25l-19.215-190.643c21.875-7 54.905-11.297 81.357 9.809 25.507 20.385 57.445 16.976 79.145 10.326z" fill="#2196f3"/></g><g><path d="M14522.748 2.888c-1.663-1.838-4.008-2.888-6.493-2.888h-192.5c-2.467 0-4.83 1.05-6.492 2.888-1.645 1.819-2.468 4.269-2.222 6.737l26.25 262.5c.454 4.48 4.217 7.875 8.714 7.875h140c4.498 0 8.26-3.395 8.698-7.875l26.25-262.5c.262-2.468-.543-4.918-2.205-6.737z" fill="#eceff1"/><path d="M14499.225 91.437L14482.13 262.5h-124.25l-19.257-191.266c21.875-7 54.949-11.384 81.395 9.842 25.516 20.509 57.507 17.011 79.207 10.361z" fill="#2196f3"/></g><g><path d="M14802.748 2.888c-1.663-1.838-4.008-2.888-6.493-2.888h-192.5c-2.467 0-4.83 1.05-6.492 2.888-1.645 1.819-2.468 4.269-2.222 6.737l26.25 262.5c.454 4.48 4.217 7.875 8.714 7.875h140c4.498 0 8.26-3.395 8.698-7.875l26.25-262.5c.262-2.468-.543-4.918-2.205-6.737z" fill="#eceff1"/><path d="M14779.276 90.952L14762.13 262.5h-124.25l-19.294-191.811c21.875-7 54.988-11.459 81.429 9.872 25.524 20.618 57.561 17.041 79.261 10.391z" fill="#2196f3"/></g><g><path d="M15082.748 2.888c-1.663-1.838-4.008-2.888-6.493-2.888h-192.5c-2.467 0-4.83 1.05-6.492 2.888-1.645 1.819-2.468 4.269-2.222 6.737l26.25 262.5c.454 4.48 4.217 7.875 8.714 7.875h140c4.498 0 8.26-3.395 8.698-7.875l26.25-262.5c.262-2.468-.543-4.918-2.205-6.737z" fill="#eceff1"/><path d="M15059.32 90.534l-17.19 171.966h-124.25l-19.326-192.281c21.875-7 55.021-11.524 81.459 9.897 25.53 20.712 57.607 17.068 79.307 10.418z" fill="#2196f3"/></g><g><path d="M15362.748 2.888c-1.663-1.838-4.008-2.888-6.493-2.888h-192.5c-2.467 0-4.83 1.05-6.492 2.888-1.645 1.819-2.468 4.269-2.222 6.737l26.25 262.5c.454 4.48 4.217 7.875 8.714 7.875h140c4.498 0 8.26-3.395 8.698-7.875l26.25-262.5c.262-2.468-.543-4.918-2.205-6.737z" fill="#eceff1"/><path d="M15339.357 90.18l-17.227 172.32h-124.25l-19.353-192.679c21.875-7 55.05-11.58 81.484 9.918 25.535 20.792 57.646 17.091 79.346 10.441z" fill="#2196f3"/></g><g><path d="M15642.748 2.888c-1.663-1.838-4.008-2.888-6.493-2.888h-192.5c-2.467 0-4.83 1.05-6.492 2.888-1.645 1.819-2.468 4.269-2.222 6.737l26.25 262.5c.454 4.48 4.217 7.875 8.714 7.875h140c4.498 0 8.26-3.395 8.698-7.875l26.25-262.5c.262-2.468-.543-4.918-2.205-6.737z" fill="#eceff1"/><path d="M15619.388 89.887L15602.13 262.5h-124.25l-19.376-193.009c21.875-7 55.074-11.625 81.505 9.937 25.54 20.856 57.679 17.109 79.379 10.459z" fill="#2196f3"/></g><g><path d="M15922.748 2.888c-1.663-1.838-4.008-2.888-6.493-2.888h-192.5c-2.467 0-4.83 1.05-6.492 2.888-1.645 1.819-2.468 4.269-2.222 6.737l26.25 262.5c.454 4.48 4.217 7.875 8.714 7.875h140c4.498 0 8.26-3.395 8.698-7.875l26.25-262.5c.262-2.468-.543-4.918-2.205-6.737z" fill="#eceff1"/><path d="M15899.413 89.652L15882.13 262.5h-124.25l-19.393-193.273c21.875-7 55.092-11.662 81.52 9.951 25.544 20.909 57.706 17.124 79.406 10.474z" fill="#2196f3"/></g><g><path d="M16202.748 2.888c-1.663-1.838-4.008-2.888-6.493-2.888h-192.5c-2.467 0-4.83 1.05-6.492 2.888-1.645 1.819-2.468 4.269-2.222 6.737l26.25 262.5c.454 4.48 4.217 7.875 8.714 7.875h140c4.498 0 8.26-3.395 8.698-7.875l26.25-262.5c.262-2.468-.543-4.918-2.205-6.737z" fill="#eceff1"/><path d="M16179.432 89.473L16162.13 262.5h-124.25l-19.407-193.474c21.875-7 55.106-11.69 81.533 9.961 25.547 20.95 57.726 17.136 79.426 10.486z" fill="#2196f3"/></g><g><path d="M16482.748 2.888c-1.663-1.838-4.008-2.888-6.493-2.888h-192.5c-2.467 0-4.83 1.05-6.492 2.888-1.645 1.819-2.468 4.269-2.222 6.737l26.25 262.5c.454 4.48 4.217 7.875 8.714 7.875h140c4.498 0 8.26-3.395 8.698-7.875l26.25-262.5c.262-2.468-.543-4.918-2.205-6.737z" fill="#eceff1"/><path d="M16459.445 89.348L16442.13 262.5h-124.25l-19.417-193.615c21.875-7 55.117-11.71 81.543 9.969 25.548 20.978 57.739 17.144 79.439 10.494z" fill="#2196f3"/></g><g><path d="M16762.748 2.888c-1.663-1.838-4.008-2.888-6.493-2.888h-192.5c-2.467 0-4.83 1.05-6.492 2.888-1.645 1.819-2.468 4.269-2.222 6.737l26.25 262.5c.454 4.48 4.217 7.875 8.714 7.875h140c4.498 0 8.26-3.395 8.698-7.875l26.25-262.5c.262-2.468-.543-4.918-2.205-6.737z" fill="#eceff1"/><path d="M16739.452 89.274L16722.13 262.5h-124.25l-19.422-193.698c21.875-7 55.122-11.721 81.547 9.974 25.55 20.994 57.747 17.148 79.447 10.498z" fill="#2196f3"/></g><g><path d="M17042.748 2.888c-1.663-1.838-4.008-2.888-6.493-2.888h-192.5c-2.467 0-4.83 1.05-6.492 2.888-1.645 1.819-2.468 4.269-2.222 6.737l26.25 262.5c.454 4.48 4.217 7.875 8.714 7.875h140c4.498 0 8.26-3.395 8.698-7.875l26.25-262.5c.262-2.468-.543-4.918-2.205-6.737z" fill="#eceff1"/><path d="M17019.455 89.25l-17.325 173.25h-124.25l-19.424-193.725c21.875-7 55.124-11.725 81.549 9.975 25.55 21 57.75 17.15 79.45 10.5z" fill="#2196f3"/></g></svg>